<svg width="61" height="66" viewBox="0 0 61 66" fill="none" xmlns="http://www.w3.org/2000/svg">
<path fill-rule="evenodd" clip-rule="evenodd" d="M45.4861 13.0922C47.7342 14.3485 48.8923 15.269 50.7948 17.2551L53.3285 15.2038C51.3608 12.8413 49.9541 11.669 46.9339 9.8342L45.4861 13.0922ZM6.21361 49.5331C1.63696 38.5537 1.65665 31.9847 8.08374 19.2461L10.8587 21.2371C5.53686 31.7533 5.02304 37.5573 9.10929 47.7231L6.21361 49.5331ZM17.917 62.7459C58.9388 76.3811 65.9367 31.7349 58.2752 23.771C58.2509 23.9629 58.227 24.1531 58.2032 24.3413C57.1049 33.0506 56.4884 37.9393 46.391 45.8528C35.6003 53.2119 29.3226 56.788 17.917 62.7459ZM35.5322 62.1426C46.6277 56.0393 51.3475 51.4391 56.7068 42.4742C52.5455 55.1537 47.3815 58.8179 35.5322 62.1426Z" fill="url(#paint0_linear_151_38)"/>
<path fill-rule="evenodd" clip-rule="evenodd" d="M0 59.307C16.4691 60.6946 49.3469 42.7155 46.3909 36.8029C46.1166 35.0201 44.9239 34.6762 43.349 34.2221C41.0215 33.5511 37.8593 32.6393 35.5925 26.486C48.0592 35.6589 55.8433 27.8165 53.4491 24.4347C52.8396 22.7082 50.4931 22.6247 48.3817 24.7967C45.2685 26.114 43.9005 24.9893 41.8446 23.2993C40.7931 22.4348 39.5616 21.4224 37.8246 20.5131C16.9841 13.5448 10.9794 35.4153 12.0049 36.8029C13.2093 40.6862 17.4343 38.0699 17.4343 36.8029C17.4343 36.8029 18.7688 26.653 27.3278 26.7877C25.559 42.2153 18.0522 49.9586 0 59.307ZM28.5947 46.6975C31.9407 43.3965 33.6207 41.506 35.4115 37.8889L38.3072 39.6989C35.1982 42.8077 32.9693 44.2838 28.5947 46.6975Z" fill="url(#paint1_linear_151_38)"/>
<path fill-rule="evenodd" clip-rule="evenodd" d="M23.4669 15.5055C25.699 6.93825 21.0541 1.65502 6.03259 0C6.37837 17.6991 15.5038 20.2718 21.5365 17.4361C21.207 17.3302 14.7096 10.7665 12.3066 6.93825C16.3232 8.98089 18.7179 10.6707 23.4669 15.5055ZM35.1099 16.4708C39.108 16.4708 42.349 13.2294 42.349 9.2309C42.349 5.2324 39.108 1.99098 35.1099 1.99098C31.1118 1.99098 27.8707 5.2324 27.8707 9.2309C27.8707 13.2294 31.1118 16.4708 35.1099 16.4708Z" fill="url(#paint2_linear_151_38)"/>
<defs>
<linearGradient id="paint0_linear_151_38" x1="39.4585" y1="23.771" x2="39.4585" y2="65.3175" gradientUnits="userSpaceOnUse">
<stop stop-color="#ED563B"/>
<stop offset="1" stop-color="#873122"/>
</linearGradient>
<linearGradient id="paint1_linear_151_38" x1="26.9404" y1="19.1461" x2="26.9404" y2="59.3831" gradientUnits="userSpaceOnUse">
<stop stop-color="#FDFDFD"/>
<stop offset="1" stop-color="#979797"/>
</linearGradient>
<linearGradient id="paint2_linear_151_38" x1="15.0144" y1="0" x2="15.0144" y2="18.419" gradientUnits="userSpaceOnUse">
<stop stop-color="#FDFDFD"/>
<stop offset="1" stop-color="#979797"/>
</linearGradient>
</defs>
</svg>
